<?xml version="1.0" encoding="UTF-8"?>
<svg width="76px" height="69px" viewBox="0 0 76 69" version="1.1" xmlns="http://www.w3.org/2000/svg" xmlns:xlink="http://www.w3.org/1999/xlink">
    <g id="Page-1" stroke="none" stroke-width="1" fill="none" fill-rule="evenodd">
        <g id="products" fill="#1D1D1B" fill-rule="nonzero">
            <path d="M31.78,12.5 L1.18,12.5 C0.839517915,12.4987846 0.51506357,12.644508 0.29,12.9 C0.0697801996,13.1566905 -0.0318938363,13.4943936 0.01,13.83 L7.01,66.43 L7,66.43 C7.07808253,67.0275854 7.57764781,67.4805811 8.18,67.5000001 L24.78,67.5000001 C25.3976339,67.5000001 25.9196574,67.0423862 26,66.43 L33,13.83 C33.047183,13.4939679 32.9448648,13.1541252 32.72,12.9 C32.4836118,12.6309157 32.1378017,12.4837625 31.78,12.5 Z M25.22,57 L7.73,57 L3.5,25 L29.5,25 L25.22,57 Z" id="Shape"></path>
            <path d="M75.14,0.38 C74.9101222,0.139544738 74.5926507,0.00245477165 74.26,0 L56.69,0 C56.3573493,0.00245477165 56.0398778,0.139544738 55.81,0.38 C55.583877,0.62710876 55.4683113,0.955748671 55.49,1.29 L59.49,55 C59.49,56.59 61.32,57.39 63.49,57.68 L63.49,59 C63.49,70.31 67.49,70.31 67.49,59 L67.49,57.68 C69.63,57.4 71.49,56.61 71.49,55.04 L75.49,1.29 C75.5036694,0.951404212 75.3770405,0.62216891 75.14,0.38 Z M69.48,54.93 L69.48,54.93 C69.31,55.22 67.92,55.8 65.48,55.8 C63.04,55.8 61.63,55.22 61.48,54.92 L58.37,13 L72.58,13 L69.48,54.93 Z" id="Shape"></path>
            <path d="M50,32.13 L50,21.33 C49.9945233,20.8699908 49.6200418,20.5 49.16,20.5 L38.16,20.5 C37.7016037,20.5 37.33,20.8716037 37.33,21.33 L37.33,32.13 C34.9001459,32.6563775 33.1647372,34.8037897 33.16,37.29 L33.16,63.21 C33.16,66.1315863 35.5284137,68.5 38.45,68.5 L48.85,68.5 C51.7715863,68.5 54.14,66.1315863 54.14,63.21 L54.14,37.29 C54.1383669,34.8128255 52.4179323,32.6685158 50,32.13 Z M38.43,34 L48.85,34 C50.6670168,34 52.14,35.4729832 52.14,37.29 L52.14,54.5 L35.14,54.5 L35.14,37.29 C35.14,35.4729832 36.6129832,34 38.43,34 Z M48.85,66.5 L38.43,66.5 C36.6129832,66.5 35.14,65.0270168 35.14,63.21 L35.14,62.5 L52.14,62.5 L52.14,63.21 C52.14,65.0270168 50.6670168,66.5 48.85,66.5 Z" id="Shape"></path>
        </g>
    </g>
</svg>
